          <svg xmlns="http://www.w3.org/2000/svg" viewBox="0 0 1440 320">
            <path
              fill="#ffeba5"
              fill-opacity="1"
              d="M0,96L30,96C60,96,120,96,180,106.7C240,117,300,139,360,165.3C420,192,480,224,540,240C600,256,660,256,720,240C780,224,840,192,900,186.7C960,181,1020,203,1080,202.7C1140,203,1200,181,1260,170.7C1320,160,1380,160,1410,160L1440,160L1440,320L1410,320C1380,320,1320,320,1260,320C1200,320,1140,320,1080,320C1020,320,960,320,900,320C840,320,780,320,720,320C660,320,600,320,540,320C480,320,420,320,360,320C300,320,240,320,180,320C120,320,60,320,30,320L0,320Z"
            ></path>
          </svg>